<svg xmlns="http://www.w3.org/2000/svg" width="41.837" height="36" viewBox="0 0 41.837 36">
  <g id="forward" transform="translate(-64.629 0.001)">
    <path id="Caminho_123" data-name="Caminho 123" d="M9.973,36a.956.956,0,0,1-.221-.025A.973.973,0,0,1,9,35.026C9,10.229,20.223,6.811,32.351,6.811h.973V.973A.972.972,0,0,1,34.91.218L50.477,12.866a.973.973,0,0,1,0,1.51L34.911,27.025a.973.973,0,0,1-1.587-.755V20.432h-.973c-11.756,0-16.945,5.748-21.505,15.023A.971.971,0,0,1,9.973,36ZM32.351,8.757c-12.348,0-20.308,3.835-21.3,22.185,4.449-7.6,10.257-12.456,21.3-12.456H34.3a.973.973,0,0,1,.973.973v4.766l13.051-10.6L35.27,3.017V7.784a.973.973,0,0,1-.973.973Z" transform="translate(55.629 0)" fill="#00bfba"/>
  </g>
</svg>
