<svg xmlns="http://www.w3.org/2000/svg" width="36.003" height="36" viewBox="0 0 36.003 36">
  <g id="link" transform="translate(-8.318 -8.32)">
    <path id="Caminho_71" data-name="Caminho 71" d="M177.212,191.31a3.192,3.192,0,0,1-2.258-5.45l10.91-10.909a3.194,3.194,0,0,1,4.516,4.516l-10.91,10.909a3.184,3.184,0,0,1-2.258.934Zm10.908-15.492a1.39,1.39,0,0,0-.985.408l-10.909,10.909a1.393,1.393,0,0,0,1.97,1.97L189.1,178.2a1.393,1.393,0,0,0-.985-2.378Zm0,0" transform="translate(-156.347 -156.345)" fill="#3ecfcb"/>
    <path id="Caminho_72" data-name="Caminho 72" d="M239.576,106.048a7.96,7.96,0,0,1-4.4-1.317l-.92-.609,3.807-3.806.547.213a2.684,2.684,0,0,0,2.834-.582l3.519-3.519a2.642,2.642,0,0,0,0-3.731l-1.252-1.252a2.728,2.728,0,0,0-3.731,0l-3.519,3.519a2.615,2.615,0,0,0-.764,1.866,2.669,2.669,0,0,0,.182.969l.213.547-3.806,3.806-.607-.92a8.007,8.007,0,0,1,1.01-10.042l3.519-3.519a8,8,0,0,1,11.281,0l1.251,1.251a8,8,0,0,1,0,11.28l-3.52,3.52a7.983,7.983,0,0,1-5.648,2.326Zm-2.409-2.286a6.206,6.206,0,0,0,6.784-1.314l3.52-3.52a6.185,6.185,0,0,0,0-8.735l-1.251-1.251a6.2,6.2,0,0,0-8.734,0l-3.52,3.519a6.2,6.2,0,0,0-1.314,6.784l1.374-1.374a4.466,4.466,0,0,1,1.169-4.18l3.519-3.52a4.461,4.461,0,0,1,6.276,0l1.252,1.252a4.442,4.442,0,0,1,0,6.276l-3.52,3.52a4.484,4.484,0,0,1-4.18,1.168Zm0,0" transform="translate(-206.75 -77.024)" fill="#3ecfcb"/>
    <path id="Caminho_73" data-name="Caminho 73" d="M94.543,251.065a7.919,7.919,0,0,1-5.64-2.328l-1.251-1.251a8,8,0,0,1,0-11.28l3.519-3.519a8.009,8.009,0,0,1,10.043-1.011l.919.608-3.806,3.807-.547-.213a2.686,2.686,0,0,0-2.834.582l-3.519,3.519a2.661,2.661,0,0,0,0,3.731l1.251,1.251a2.724,2.724,0,0,0,3.731,0l3.519-3.519a2.64,2.64,0,0,0,.585-2.832l-.215-.548,3.806-3.806.607.92a8.007,8.007,0,0,1-1.01,10.042l-3.52,3.519a7.915,7.915,0,0,1-5.639,2.327Zm2.275-18.906a6.176,6.176,0,0,0-4.373,1.8l-3.519,3.519a6.183,6.183,0,0,0,0,8.735l1.251,1.251a6.2,6.2,0,0,0,8.735,0l3.52-3.519a6.2,6.2,0,0,0,1.314-6.784l-1.372,1.372a4.439,4.439,0,0,1-1.171,4.183l-3.52,3.52a4.46,4.46,0,0,1-6.276,0l-1.251-1.251a4.459,4.459,0,0,1,0-6.277l3.519-3.52a4.5,4.5,0,0,1,4.18-1.168l1.374-1.374A6.179,6.179,0,0,0,96.817,232.159Zm0,0" transform="translate(-77.006 -206.745)" fill="#3ecfcb"/>
  </g>
</svg>
