<svg xmlns="http://www.w3.org/2000/svg" width="24.453" height="36" viewBox="0 0 24.453 36">
  <g id="rook" transform="translate(-82.113)">
    <g id="Grupo_194" data-name="Grupo 194" transform="translate(82.113 31.245)">
      <g id="Grupo_193" data-name="Grupo 193" transform="translate(0)">
        <path id="Caminho_74" data-name="Caminho 74" d="M104.528,444.377H84.151a2.04,2.04,0,0,0-2.038,2.038v.679a2.04,2.04,0,0,0,2.038,2.038h20.377a2.04,2.04,0,0,0,2.038-2.038v-.679A2.04,2.04,0,0,0,104.528,444.377Zm.679,2.717a.68.68,0,0,1-.679.679H84.151a.68.68,0,0,1-.679-.679v-.679a.68.68,0,0,1,.679-.679h20.377a.68.68,0,0,1,.679.679v.679Z" transform="translate(-82.113 -444.377)" fill="#00bfba"/>
      </g>
    </g>
    <g id="Grupo_196" data-name="Grupo 196" transform="translate(85.509 28.528)">
      <g id="Grupo_195" data-name="Grupo 195" transform="translate(0)">
        <path id="Caminho_75" data-name="Caminho 75" d="M146.038,405.736H132.453a2.038,2.038,0,1,0,0,4.075h13.585a2.038,2.038,0,1,0,0-4.075Zm0,2.717H132.453a.679.679,0,0,1,0-1.358h13.585a.679.679,0,0,1,0,1.358Z" transform="translate(-130.415 -405.736)" fill="#00bfba"/>
      </g>
    </g>
    <g id="Grupo_198" data-name="Grupo 198" transform="translate(85.509 11.547)">
      <g id="Grupo_197" data-name="Grupo 197" transform="translate(0)">
        <path id="Caminho_76" data-name="Caminho 76" d="M146.038,164.226H132.453a2.038,2.038,0,1,0,0,4.075h13.585a2.038,2.038,0,1,0,0-4.075Zm0,2.717H132.453a.679.679,0,1,1,0-1.358h13.585a.679.679,0,0,1,0,1.358Z" transform="translate(-130.415 -164.226)" fill="#00bfba"/>
      </g>
    </g>
    <g id="Grupo_200" data-name="Grupo 200" transform="translate(89.585 8.83)">
      <g id="Grupo_199" data-name="Grupo 199" transform="translate(0)">
        <path id="Caminho_77" data-name="Caminho 77" d="M197.208,125.585h-8.151a.679.679,0,0,0-.679.679v2.717a.679.679,0,0,0,.679.679h8.151a.679.679,0,0,0,.679-.679v-2.717A.679.679,0,0,0,197.208,125.585Zm-.679,2.717h-6.792v-1.359h6.792Z" transform="translate(-188.378 -125.585)" fill="#00bfba"/>
      </g>
    </g>
    <g id="Grupo_202" data-name="Grupo 202" transform="translate(87.547 14.264)">
      <g id="Grupo_201" data-name="Grupo 201" transform="translate(0)">
        <path id="Caminho_78" data-name="Caminho 78" d="M172.174,208.744a14.477,14.477,0,0,1-.552-4.626v-.569a.679.679,0,0,0-.679-.679h-9.51a.679.679,0,0,0-.679.679v.569a14.48,14.48,0,0,1-.551,4.626,12.559,12.559,0,0,0-.808,4.424v4.645a.679.679,0,0,0,.679.679H172.3a.679.679,0,0,0,.679-.679v-4.645A12.556,12.556,0,0,0,172.174,208.744Zm-.552,8.389H160.755v-3.965a11.21,11.21,0,0,1,.721-3.947,15.262,15.262,0,0,0,.637-4.993h8.151a15.228,15.228,0,0,0,.637,4.993,11.209,11.209,0,0,1,.721,3.947v3.965Z" transform="translate(-159.396 -202.869)" fill="#00bfba"/>
      </g>
    </g>
    <g id="Grupo_204" data-name="Grupo 204" transform="translate(86.189)">
      <g id="Grupo_203" data-name="Grupo 203" transform="translate(0)">
        <path id="Caminho_79" data-name="Caminho 79" d="M155.7,0h-2.717a.679.679,0,0,0-.679.679V2.717h-2.038V.679A.679.679,0,0,0,149.586,0h-2.717a.679.679,0,0,0-.679.679V2.717h-2.038V.679A.679.679,0,0,0,143.473,0h-2.717a.679.679,0,0,0-.679.679V6.113a.678.678,0,0,0,.2.48l3.4,3.4a.677.677,0,0,0,.48.2H152.3a.679.679,0,0,0,.48-.2l3.4-3.4a.677.677,0,0,0,.2-.48V.679A.68.68,0,0,0,155.7,0Zm-.68,5.832-3,3h-7.588l-3-3V1.359h1.359V3.4a.679.679,0,0,0,.679.679h3.4a.679.679,0,0,0,.679-.679V1.359h1.359V3.4a.679.679,0,0,0,.679.679h3.4a.679.679,0,0,0,.679-.679V1.359h1.359V5.832Z" transform="translate(-140.077)" fill="#00bfba"/>
      </g>
    </g>
  </g>
</svg>
