<svg xmlns="http://www.w3.org/2000/svg" width="35.865" height="35.865" viewBox="0 0 35.865 35.865">
  <g id="internet" transform="translate(-34.131 -34.136)">
    <g id="Grupo_182" data-name="Grupo 182" transform="translate(34.131 34.136)">
      <g id="Grupo_181" data-name="Grupo 181" transform="translate(0)">
        <path id="Caminho_65" data-name="Caminho 65" d="M52.064,34.136A17.933,17.933,0,1,0,70,52.069,17.953,17.953,0,0,0,52.064,34.136Zm0,34.486A16.553,16.553,0,1,1,68.617,52.069,16.572,16.572,0,0,1,52.064,68.622Z" transform="translate(-34.131 -34.136)" fill="#00bfba"/>
      </g>
    </g>
    <g id="Grupo_184" data-name="Grupo 184" transform="translate(34.131 51.379)">
      <g id="Grupo_183" data-name="Grupo 183" transform="translate(0 0)">
        <path id="Caminho_66" data-name="Caminho 66" d="M69.307,247.466H34.821a.69.69,0,1,0,0,1.379H69.307a.69.69,0,1,0,0-1.379Z" transform="translate(-34.131 -247.466)" fill="#00bfba"/>
      </g>
    </g>
    <g id="Grupo_186" data-name="Grupo 186" transform="translate(43.097 34.136)">
      <g id="Grupo_185" data-name="Grupo 185">
        <path id="Caminho_67" data-name="Caminho 67" d="M154.029,34.136c-5.028,0-8.966,7.877-8.966,17.933S149,70,154.029,70,163,62.124,163,52.069,159.057,34.136,154.029,34.136Zm0,34.486c-4.112,0-7.587-7.58-7.587-16.553s3.475-16.553,7.587-16.553,7.587,7.58,7.587,16.553S158.141,68.622,154.029,68.622Z" transform="translate(-145.063 -34.136)" fill="#00bfba"/>
      </g>
    </g>
    <g id="Grupo_188" data-name="Grupo 188" transform="translate(37.709 34.136)">
      <g id="Grupo_187" data-name="Grupo 187" transform="translate(0)">
        <path id="Caminho_68" data-name="Caminho 68" d="M106.665,40.761a17.928,17.928,0,0,0-27.833,0l-.439.539.543.435c3.277,2.621,8.311,4.125,13.812,4.125s10.535-1.5,13.812-4.126l.543-.435Zm-13.916,3.72c-4.8,0-9.366-1.26-12.382-3.4a16.547,16.547,0,0,1,24.764,0C102.115,43.222,97.553,44.482,92.748,44.482Z" transform="translate(-78.393 -34.136)" fill="#00bfba"/>
      </g>
    </g>
    <g id="Grupo_190" data-name="Grupo 190" transform="translate(37.709 58.276)">
      <g id="Grupo_189" data-name="Grupo 189" transform="translate(0 0)">
        <path id="Caminho_69" data-name="Caminho 69" d="M106.56,336.923c-3.277-2.621-8.311-4.125-13.812-4.125s-10.535,1.5-13.812,4.126l-.543.435.439.539a17.928,17.928,0,0,0,27.833,0l.439-.539Zm-13.812,6.221a16.491,16.491,0,0,1-12.382-5.57c3.015-2.136,7.577-3.4,12.382-3.4s9.366,1.26,12.382,3.4A16.491,16.491,0,0,1,92.747,343.144Z" transform="translate(-78.392 -332.798)" fill="#00bfba"/>
      </g>
    </g>
    <g id="Grupo_192" data-name="Grupo 192" transform="translate(51.374 34.136)">
      <g id="Grupo_191" data-name="Grupo 191">
        <rect id="Retângulo_202" data-name="Retângulo 202" width="1.379" height="35.176" fill="#00bfba"/>
      </g>
    </g>
  </g>
</svg>
