<svg xmlns="http://www.w3.org/2000/svg" width="52.503" height="40" viewBox="0 0 52.503 40">
  <g id="conversation" transform="translate(-0.001 -238.951)">
    <path id="Caminho_31" data-name="Caminho 31" d="M196.918,278.957h-22.5a1.25,1.25,0,0,1-1.25-1.25V265.129a7.377,7.377,0,0,0-2.14-5.211,1.25,1.25,0,0,1,0-1.756,9.87,9.87,0,0,1,4.6-2.651,10,10,0,1,1,15.083.006,9.939,9.939,0,0,1,7.458,9.612v12.577a1.25,1.25,0,0,1-1.25,1.25Zm-21.251-2.5h20V265.129a7.434,7.434,0,0,0-7.424-7.424h0a1.421,1.421,0,0,1-.806-2.592,7.5,7.5,0,1,0-8.536,0,1.423,1.423,0,0,1-.807,2.6,7.356,7.356,0,0,0-4.419,1.459,9.846,9.846,0,0,1,2,5.966Zm0,0" transform="translate(-145.664 -0.006)" fill="#00bfba"/>
    <path id="Caminho_32" data-name="Caminho 32" d="M28.752,278.951H1.251A1.251,1.251,0,0,1,0,277.7V265.124a9.943,9.943,0,0,1,7.463-9.616,10,10,0,1,1,15.081,0A9.942,9.942,0,0,1,30,265.124V277.7a1.251,1.251,0,0,1-1.25,1.25ZM2.5,276.451h25V265.124a7.434,7.434,0,0,0-7.424-7.424h0a1.421,1.421,0,0,1-.806-2.592,7.5,7.5,0,1,0-8.536,0,1.422,1.422,0,0,1-.807,2.6A7.434,7.434,0,0,0,2.5,265.124Zm0,0" fill="#00bfba"/>
  </g>
</svg>
