<svg id="share" xmlns="http://www.w3.org/2000/svg" width="46.587" height="40.376" viewBox="0 0 46.587 40.376">
  <path id="Caminho_2" data-name="Caminho 2" d="M28.212,30.423a6.212,6.212,0,1,1,6.212-6.212A6.219,6.219,0,0,1,28.212,30.423Zm0-10.87a4.659,4.659,0,1,0,4.659,4.659A4.664,4.664,0,0,0,28.212,19.553Z" transform="translate(-4.918 -4.024)" fill="#00bfba"/>
  <path id="Caminho_3" data-name="Caminho 3" d="M52.659,9.317a4.659,4.659,0,1,1,4.659-4.659A4.664,4.664,0,0,1,52.659,9.317Zm0-7.765a3.106,3.106,0,1,0,3.106,3.106A3.109,3.109,0,0,0,52.659,1.553Z" transform="translate(-10.73)" fill="#00bfba"/>
  <path id="Caminho_4" data-name="Caminho 4" d="M4.659,49.317a4.659,4.659,0,1,1,4.659-4.659A4.664,4.664,0,0,1,4.659,49.317Zm0-7.765a3.106,3.106,0,1,0,3.106,3.106A3.109,3.109,0,0,0,4.659,41.553Z" transform="translate(0 -8.942)" fill="#00bfba"/>
  <path id="Caminho_5" data-name="Caminho 5" d="M7.106,19.212a3.106,3.106,0,1,1,3.106-3.106A3.109,3.109,0,0,1,7.106,19.212Zm0-4.659a1.553,1.553,0,1,0,1.553,1.553A1.554,1.554,0,0,0,7.106,14.553Z" transform="translate(-0.894 -2.906)" fill="#00bfba"/>
  <path id="Caminho_6" data-name="Caminho 6" d="M27.106,8.212a3.106,3.106,0,1,1,3.106-3.106A3.109,3.109,0,0,1,27.106,8.212Zm0-4.659a1.553,1.553,0,1,0,1.553,1.553A1.554,1.554,0,0,0,27.106,3.553Z" transform="translate(-5.365 -0.447)" fill="#00bfba"/>
  <path id="Caminho_7" data-name="Caminho 7" d="M45.106,41.212a3.106,3.106,0,1,1,3.106-3.106A3.109,3.109,0,0,1,45.106,41.212Zm0-4.659a1.553,1.553,0,1,0,1.553,1.553A1.554,1.554,0,0,0,45.106,36.553Z" transform="translate(-9.389 -7.824)" fill="#00bfba"/>
  <path id="Caminho_8" data-name="Caminho 8" d="M29.329,17.317a.776.776,0,0,1-.76-.624L27.016,8.929a.776.776,0,1,1,1.523-.305l1.553,7.765a.777.777,0,0,1-.609.914A.749.749,0,0,1,29.329,17.317Z" transform="translate(-6.036 -1.788)" fill="#00bfba"/>
  <path id="Caminho_9" data-name="Caminho 9" d="M35.153,19.318a.776.776,0,0,1-.5-1.373L46.134,8.381a.776.776,0,0,1,.994,1.193L35.65,19.138A.773.773,0,0,1,35.153,19.318Z" transform="translate(-7.685 -1.833)" fill="#00bfba"/>
  <path id="Caminho_10" data-name="Caminho 10" d="M9.754,40.734a.776.776,0,0,1-.5-1.367l11.372-9.7a.777.777,0,1,1,1.008,1.182l-11.373,9.7A.77.77,0,0,1,9.754,40.734Z" transform="translate(-2.007 -6.59)" fill="#00bfba"/>
  <path id="Caminho_11" data-name="Caminho 11" d="M20.447,22.737a.77.77,0,0,1-.294-.058l-9.9-4.048a.776.776,0,0,1,.588-1.437l9.9,4.048a.777.777,0,0,1-.294,1.5Z" transform="translate(-2.185 -3.831)" fill="#00bfba"/>
  <path id="Caminho_12" data-name="Caminho 12" d="M41.722,36.034a.773.773,0,0,1-.482-.168l-6.464-5.13a.777.777,0,1,1,.965-1.217l6.464,5.13a.777.777,0,0,1-.483,1.385Z" transform="translate(-7.708 -6.561)" fill="#00bfba"/>
</svg>
