<svg xmlns="http://www.w3.org/2000/svg" width="35.962" height="36" viewBox="0 0 35.962 36">
  <g id="Grupo_292" data-name="Grupo 292" transform="translate(-799 -2259)">
    <g id="Grupo_286" data-name="Grupo 286" transform="translate(799 2278.822)">
      <g id="Grupo_285" data-name="Grupo 285" transform="translate(0 0)">
        <path id="Caminho_154" data-name="Caminho 154" d="M97.619,329.143H83.093a.807.807,0,0,0-.807.807v14.526a.807.807,0,0,0,.807.807H97.619a.807.807,0,0,0,.807-.807V329.95A.807.807,0,0,0,97.619,329.143Zm-.807,14.526H83.9V330.757H96.812Z" transform="translate(-82.286 -329.143)" fill="#00bfba"/>
      </g>
    </g>
    <g id="Grupo_288" data-name="Grupo 288" transform="translate(799 2264.296)">
      <g id="Grupo_287" data-name="Grupo 287" transform="translate(0 0)">
        <path id="Caminho_155" data-name="Caminho 155" d="M97.619,164.571H83.093a.807.807,0,0,0-.807.807V179.9a.807.807,0,0,0,.807.807H97.619a.807.807,0,0,0,.807-.807V165.378A.807.807,0,0,0,97.619,164.571ZM96.812,179.1H83.9V166.185H96.812Z" transform="translate(-82.286 -164.571)" fill="#00bfba"/>
      </g>
    </g>
    <g id="Grupo_290" data-name="Grupo 290" transform="translate(813.526 2278.86)">
      <g id="Grupo_289" data-name="Grupo 289" transform="translate(0 0)">
        <path id="Caminho_156" data-name="Caminho 156" d="M262.19,164.571H247.664a.807.807,0,0,0-.807.807V179.9a.807.807,0,0,0,.807.807H262.19A.807.807,0,0,0,263,179.9V165.378A.807.807,0,0,0,262.19,164.571Zm-.807,14.526H248.471V166.185h12.912Z" transform="translate(-246.857 -164.571)" fill="#00bfba"/>
      </g>
    </g>
    <g id="Grupo_291" data-name="Grupo 291" transform="translate(818.822 2259)">
      <g id="Grupo_289-2" data-name="Grupo 289" transform="translate(0 0)">
        <path id="Caminho_156-2" data-name="Caminho 156" d="M262.19,164.571H247.664a.807.807,0,0,0-.807.807V179.9a.807.807,0,0,0,.807.807H262.19A.807.807,0,0,0,263,179.9V165.378A.807.807,0,0,0,262.19,164.571Zm-.807,14.526H248.471V166.185h12.912Z" transform="translate(-246.857 -164.571)" fill="#00bfba"/>
      </g>
    </g>
  </g>
</svg>
