<svg xmlns="http://www.w3.org/2000/svg" width="36" height="36" viewBox="0 0 36 36">
  <g id="process" transform="translate(0)">
    <path id="Caminho_87" data-name="Caminho 87" d="M102.867,372.934h-8.4a.6.6,0,0,1-.6-.6v-4.8a.6.6,0,0,1,.6-.6h8.4a.6.6,0,0,1,.6.6v4.8A.6.6,0,0,1,102.867,372.934Zm-7.8-1.2h7.2v-3.6h-7.2Zm0,0" transform="translate(-87.267 -341.134)" fill="#00bfba"/>
    <path id="Caminho_88" data-name="Caminho 88" d="M196.734,168.133h-8.4a.6.6,0,0,1-.6-.6v-4.8a.6.6,0,0,1,.6-.6h8.4a.6.6,0,0,1,.6.6v4.8A.6.6,0,0,1,196.734,168.133Zm-7.8-1.2h7.2v-3.6h-7.2Zm0,0" transform="translate(-174.534 -150.733)" fill="#00bfba"/>
    <path id="Caminho_89" data-name="Caminho 89" d="M290.6,372.934h-8.4a.6.6,0,0,1-.6-.6v-4.8a.6.6,0,0,1,.6-.6h8.4a.6.6,0,0,1,.6.6v4.8A.6.6,0,0,1,290.6,372.934Zm-7.8-1.2H290v-3.6h-7.2Zm0,0" transform="translate(-261.802 -341.134)" fill="#00bfba"/>
    <path id="Caminho_90" data-name="Caminho 90" d="M154.2,312.6a.6.6,0,0,1-.6-.6v-4.2a.6.6,0,1,1,1.2,0V312A.6.6,0,0,1,154.2,312.6Zm0,0" transform="translate(-142.802 -285.599)" fill="#00bfba"/>
    <path id="Caminho_91" data-name="Caminho 91" d="M160.8,308.4h-6.6a.6.6,0,0,1,0-1.2h6.6a.6.6,0,1,1,0,1.2Zm0,0" transform="translate(-142.802 -285.6)" fill="#00bfba"/>
    <path id="Caminho_92" data-name="Caminho 92" d="M341.932,312.6a.6.6,0,0,1-.6-.6v-4.2a.6.6,0,1,1,1.2,0V312A.6.6,0,0,1,341.932,312.6Zm0,0" transform="translate(-317.332 -285.599)" fill="#00bfba"/>
    <path id="Caminho_93" data-name="Caminho 93" d="M254.665,308.4h-6.6a.6.6,0,1,1,0-1.2h6.6a.6.6,0,0,1,0,1.2Zm0,0" transform="translate(-230.065 -285.6)" fill="#00bfba"/>
    <path id="Caminho_94" data-name="Caminho 94" d="M248.065,237a.6.6,0,0,1-.6-.6V231a.6.6,0,0,1,1.2,0v5.4A.6.6,0,0,1,248.065,237Zm0,0" transform="translate(-230.065 -214.199)" fill="#00bfba"/>
    <path id="Caminho_95" data-name="Caminho 95" d="M233.4,197.466H231a.6.6,0,1,1,0-1.2h2.4a.6.6,0,1,1,0,1.2Zm0,0" transform="translate(-214.198 -182.466)" fill="#00bfba"/>
    <path id="Caminho_96" data-name="Caminho 96" d="M139.535,402.267h-2.4a.6.6,0,0,1,0-1.2h2.4a.6.6,0,1,1,0,1.2Zm0,0" transform="translate(-126.935 -372.867)" fill="#00bfba"/>
    <path id="Caminho_97" data-name="Caminho 97" d="M327.266,402.267h-2.4a.6.6,0,1,1,0-1.2h2.4a.6.6,0,0,1,0,1.2Zm0,0" transform="translate(-301.466 -372.867)" fill="#00bfba"/>
    <path id="Caminho_98" data-name="Caminho 98" d="M33.3,36H2.7A2.7,2.7,0,0,1,0,33.3V2.7A2.7,2.7,0,0,1,2.7,0H33.3A2.7,2.7,0,0,1,36,2.7V33.3A2.7,2.7,0,0,1,33.3,36ZM2.7,1.2A1.5,1.5,0,0,0,1.2,2.7V33.3a1.5,1.5,0,0,0,1.5,1.5H33.3a1.5,1.5,0,0,0,1.5-1.5V2.7a1.5,1.5,0,0,0-1.5-1.5Zm0,0" transform="translate(-0.001 0)" fill="#00bfba"/>
    <path id="Caminho_99" data-name="Caminho 99" d="M37.133,37.733h-2.4a.6.6,0,0,1-.6-.6v-2.4a.6.6,0,0,1,.6-.6h2.4a.6.6,0,0,1,.6.6v2.4A.6.6,0,0,1,37.133,37.733Zm-1.8-1.2h1.2v-1.2h-1.2Zm0,0" transform="translate(-31.733 -31.733)" fill="#00bfba"/>
    <path id="Caminho_100" data-name="Caminho 100" d="M105.4,37.733H103a.6.6,0,0,1-.6-.6v-2.4a.6.6,0,0,1,.6-.6h2.4a.6.6,0,0,1,.6.6v2.4A.6.6,0,0,1,105.4,37.733Zm-1.8-1.2h1.2v-1.2h-1.2Zm0,0" transform="translate(-95.198 -31.733)" fill="#00bfba"/>
    <path id="Caminho_101" data-name="Caminho 101" d="M173.668,37.733h-2.4a.6.6,0,0,1-.6-.6v-2.4a.6.6,0,0,1,.6-.6h2.4a.6.6,0,0,1,.6.6v2.4A.6.6,0,0,1,173.668,37.733Zm-1.8-1.2h1.2v-1.2h-1.2Zm0,0" transform="translate(-158.668 -31.733)" fill="#00bfba"/>
  </g>
</svg>
