<svg xmlns="http://www.w3.org/2000/svg" width="32.087" height="36" viewBox="0 0 32.087 36">
  <g id="medical-file" transform="translate(-4 -10)">
    <path id="Caminho_80" data-name="Caminho 80" d="M27.478,46H4.783A.783.783,0,0,1,4,45.217V10.783A.783.783,0,0,1,4.783,10H35.3a.783.783,0,0,1,.783.783V37.391a.781.781,0,0,1-.229.553l-7.826,7.826A.781.781,0,0,1,27.478,46ZM5.565,44.435H27.154l7.367-7.367v-25.5s-28.977.035-28.957,0Z" fill="#00bfba"/>
    <path id="Caminho_84" data-name="Caminho 84" d="M33.783,53.391A.782.782,0,0,1,33,52.609V44.783A.783.783,0,0,1,33.783,44h7.826a.782.782,0,0,1,.553,1.336l-7.826,7.826A.783.783,0,0,1,33.783,53.391Zm.783-7.826v5.154l5.154-5.154Z" transform="translate(-6.304 -7.391)" fill="#00bfba"/>
  </g>
</svg>
