<svg xmlns="http://www.w3.org/2000/svg" width="34.2" height="34.201" viewBox="0 0 34.2 34.201">
  <g id="stats" transform="translate(-1.801 -0.001)">
    <g id="Grupo_254" data-name="Grupo 254" transform="translate(1.801 0.001)">
      <g id="Grupo_253" data-name="Grupo 253" transform="translate(0 0)">
        <path id="Caminho_126" data-name="Caminho 126" d="M59.2,33H26.8V.6a.6.6,0,1,0-1.2,0v33a.6.6,0,0,0,.6.6h33a.6.6,0,1,0,0-1.2Z" transform="translate(-25.603 -0.004)" fill="#00bfba"/>
      </g>
    </g>
    <g id="Grupo_256" data-name="Grupo 256" transform="translate(7.089 30.601)">
      <g id="Grupo_255" data-name="Grupo 255">
        <path id="Caminho_127" data-name="Caminho 127" d="M77.4,435.2c-.331,0-.6.2-.6.45v2.7c0,.249.269.45.6.45s.6-.2.6-.45v-2.7C78,435.4,77.733,435.2,77.4,435.2Z" transform="translate(-76.802 -435.203)" fill="#00bfba"/>
      </g>
    </g>
    <g id="Grupo_258" data-name="Grupo 258" transform="translate(5.907 25.201)">
      <g id="Grupo_257" data-name="Grupo 257">
        <path id="Caminho_128" data-name="Caminho 128" d="M61.535,358.4a1.8,1.8,0,0,0-1.8,1.8v3a1.8,1.8,0,0,0,3.6,0v-3A1.8,1.8,0,0,0,61.535,358.4Zm.6,4.8a.6.6,0,1,1-1.2,0v-3a.6.6,0,1,1,1.2,0Z" transform="translate(-59.735 -358.403)" fill="#00bfba"/>
      </g>
    </g>
    <g id="Grupo_264" data-name="Grupo 264" transform="translate(14.579 30.601)">
      <g id="Grupo_263" data-name="Grupo 263">
        <path id="Caminho_131" data-name="Caminho 131" d="M213.936,435.2c-.331,0-.6.2-.6.45v2.7c0,.249.269.45.6.45s.6-.2.6-.45v-2.7C214.536,435.4,214.267,435.2,213.936,435.2Z" transform="translate(-213.336 -435.203)" fill="#00bfba"/>
      </g>
    </g>
    <g id="Grupo_266" data-name="Grupo 266" transform="translate(13.36 19.801)">
      <g id="Grupo_265" data-name="Grupo 265">
        <path id="Caminho_132" data-name="Caminho 132" d="M198.069,281.6a1.8,1.8,0,0,0-1.8,1.8v8.4a1.8,1.8,0,0,0,3.6,0v-8.4A1.8,1.8,0,0,0,198.069,281.6Zm.6,10.2a.6.6,0,0,1-1.2,0v-8.4a.6.6,0,0,1,1.2,0Z" transform="translate(-196.269 -281.603)" fill="#00bfba"/>
      </g>
    </g>
    <g id="Grupo_272" data-name="Grupo 272" transform="translate(21.929 30.601)">
      <g id="Grupo_271" data-name="Grupo 271" transform="translate(0)">
        <path id="Caminho_135" data-name="Caminho 135" d="M350.469,435.2c-.331,0-.6.2-.6.45v2.7c0,.249.269.45.6.45s.6-.2.6-.45v-2.7C351.069,435.4,350.8,435.2,350.469,435.2Z" transform="translate(-349.869 -435.203)" fill="#00bfba"/>
      </g>
    </g>
    <g id="Grupo_274" data-name="Grupo 274" transform="translate(20.743 12.601)">
      <g id="Grupo_273" data-name="Grupo 273">
        <path id="Caminho_136" data-name="Caminho 136" d="M334.6,179.2a1.8,1.8,0,0,0-1.8,1.8v15.6a1.8,1.8,0,0,0,3.6,0V181A1.8,1.8,0,0,0,334.6,179.2Zm.6,17.4a.6.6,0,0,1-1.2,0V181a.6.6,0,1,1,1.2,0Z" transform="translate(-332.802 -179.203)" fill="#00bfba"/>
      </g>
    </g>
    <g id="Grupo_276" data-name="Grupo 276" transform="translate(29.401 30.601)">
      <g id="Grupo_275" data-name="Grupo 275">
        <path id="Caminho_137" data-name="Caminho 137" d="M418.736,435.2c-.331,0-.6.2-.6.45v2.7c0,.249.269.45.6.45s.6-.2.6-.45v-2.7C419.336,435.4,419.067,435.2,418.736,435.2Z" transform="translate(-418.136 -435.203)" fill="#00bfba"/>
      </g>
    </g>
    <g id="Grupo_278" data-name="Grupo 278" transform="translate(28.196 9.001)">
      <g id="Grupo_277" data-name="Grupo 277" transform="translate(0)">
        <path id="Caminho_138" data-name="Caminho 138" d="M402.869,128a1.8,1.8,0,0,0-1.8,1.8V149a1.8,1.8,0,1,0,3.6,0V129.8A1.8,1.8,0,0,0,402.869,128Zm.6,21a.6.6,0,0,1-1.2,0V129.8a.6.6,0,1,1,1.2,0Z" transform="translate(-401.069 -128.003)" fill="#00bfba"/>
      </g>
    </g>
  </g>
</svg>
