<svg xmlns="http://www.w3.org/2000/svg" width="36.001" height="36" viewBox="0 0 36.001 36">
  <g id="settings" transform="translate(0 -0.005)">
    <g id="Grupo_206" data-name="Grupo 206" transform="translate(0 0.005)">
      <g id="Grupo_205" data-name="Grupo 205">
        <path id="Caminho_85" data-name="Caminho 85" d="M35.4,15.005H33.3a1.54,1.54,0,0,1-1.489-1.072,14.38,14.38,0,0,0-1.163-2.807,1.545,1.545,0,0,1,.289-1.817l1.486-1.486a.6.6,0,0,0,0-.848L29.03,3.58a.6.6,0,0,0-.848,0L26.7,5.067a1.55,1.55,0,0,1-1.817.289,14.358,14.358,0,0,0-2.807-1.163A1.539,1.539,0,0,1,21,2.7V.6a.6.6,0,0,0-.6-.6H15.6a.6.6,0,0,0-.6.6v2.1a1.54,1.54,0,0,1-1.072,1.488,14.372,14.372,0,0,0-2.807,1.163A1.544,1.544,0,0,1,9.3,5.067L7.818,3.58a.6.6,0,0,0-.848,0L3.575,6.974a.6.6,0,0,0,0,.848L5.061,9.309a1.545,1.545,0,0,1,.29,1.817,14.327,14.327,0,0,0-1.163,2.807A1.539,1.539,0,0,1,2.7,15H.6a.6.6,0,0,0-.6.6v4.8a.6.6,0,0,0,.6.6H2.7a1.541,1.541,0,0,1,1.489,1.072,14.333,14.333,0,0,0,1.163,2.807A1.546,1.546,0,0,1,5.062,26.7L3.576,28.188a.6.6,0,0,0,0,.848L6.97,32.43a.6.6,0,0,0,.848,0L9.3,30.943a1.549,1.549,0,0,1,1.817-.289,14.362,14.362,0,0,0,2.807,1.163A1.539,1.539,0,0,1,15,33.3v2.1a.6.6,0,0,0,.6.6h4.8a.6.6,0,0,0,.6-.6v-2.1a1.54,1.54,0,0,1,1.072-1.488,14.356,14.356,0,0,0,2.807-1.163,1.544,1.544,0,0,1,1.817.289l1.486,1.486a.6.6,0,0,0,.848,0l3.394-3.394a.6.6,0,0,0,0-.848L30.939,26.7a1.546,1.546,0,0,1-.289-1.817,14.321,14.321,0,0,0,1.163-2.807A1.539,1.539,0,0,1,33.3,21h2.1a.6.6,0,0,0,.6-.6V15.6A.6.6,0,0,0,35.4,15.005Zm-.6,4.8H33.3a2.747,2.747,0,0,0-2.639,1.933A13.158,13.158,0,0,1,29.6,24.31a2.753,2.753,0,0,0,.5,3.24l1.062,1.062-2.546,2.545L27.546,30.1a2.75,2.75,0,0,0-3.239-.494,13.226,13.226,0,0,1-2.572,1.065A2.745,2.745,0,0,0,19.8,33.305v1.5H16.2V33.3a2.746,2.746,0,0,0-1.933-2.639A13.171,13.171,0,0,1,11.7,29.6a2.753,2.753,0,0,0-3.239.494L7.395,31.156,4.849,28.611l1.062-1.062a2.752,2.752,0,0,0,.5-3.24,13.089,13.089,0,0,1-1.065-2.572A2.746,2.746,0,0,0,2.7,19.8H1.2V16.2H2.7a2.747,2.747,0,0,0,2.639-1.933A13.121,13.121,0,0,1,6.406,11.7a2.753,2.753,0,0,0-.5-3.24L4.849,7.4,7.394,4.852,8.456,5.914a2.752,2.752,0,0,0,3.239.494,13.226,13.226,0,0,1,2.572-1.065A2.745,2.745,0,0,0,16.2,2.7V1.2h3.6v1.5a2.746,2.746,0,0,0,1.933,2.639A13.155,13.155,0,0,1,24.306,6.41a2.75,2.75,0,0,0,3.239-.494l1.062-1.062L31.153,7.4,30.091,8.461A2.753,2.753,0,0,0,29.6,11.7a13.119,13.119,0,0,1,1.065,2.572A2.746,2.746,0,0,0,33.3,16.206h1.5v3.6Z" transform="translate(0 -0.005)" fill="#00bfba"/>
      </g>
    </g>
    <g id="Grupo_208" data-name="Grupo 208" transform="translate(8.401 8.405)">
      <g id="Grupo_207" data-name="Grupo 207">
        <path id="Caminho_86" data-name="Caminho 86" d="M129.084,119.471a9.6,9.6,0,1,0,9.6,9.6A9.611,9.611,0,0,0,129.084,119.471Zm0,18a8.4,8.4,0,1,1,8.4-8.4A8.409,8.409,0,0,1,129.084,137.471Z" transform="translate(-119.484 -119.471)" fill="#00bfba"/>
      </g>
    </g>
  </g>
</svg>
